<?xml version="1.0" encoding="UTF-8"?>
<svg xmlns="http://www.w3.org/2000/svg" viewBox="0 0 500 500" role="img" aria-label="Civic Guild logo">
<g transform="translate(0.000000,500.000000) scale(0.100000,-0.100000)"
fill="#1e4ea8" stroke="none">
<path d="M2322 4659 c-394 -33 -821 -205 -1135 -458 -433 -350 -706 -851 -772
-1419 -79 -676 209 -1394 735 -1834 292 -245 632 -404 1000 -469 169 -30 429
-36 600 -14 644 81 1205 445 1543 1001 137 225 229 474 278 751 19 106 23 165
23 343 0 239 -17 374 -76 577 -242 846 -983 1452 -1862 1523 -143 11 -184 11
-334 -1z m58 -281 c1 -150 57 -212 297 -329 133 -65 175 -91 228 -141 90 -83
128 -162 128 -262 0 -60 -5 -84 -30 -137 -17 -35 -52 -86 -78 -112 l-48 -48
27 -28 c30 -31 34 -75 11 -108 -15 -21 -14 -21 58 -33 86 -14 243 -63 275 -85
20 -15 22 -23 22 -124 l0 -109 40 -40 c81 -81 43 -142 -123 -193 -119 -37
-171 -69 -196 -118 -18 -34 -18 -36 2 -62 24 -33 18 -70 -17 -102 -16 -15 -26
-39 -31 -74 -6 -45 -4 -53 13 -62 23 -12 52 -70 52 -103 0 -12 -11 -48 -23
-78 -20 -49 -22 -59 -10 -85 15 -36 9 -84 -18 -138 -17 -32 -18 -44 -9 -72 16
-48 -2 -106 -49 -155 l-39 -41 -12 -188 -13 -188 23 -31 c15 -20 21 -39 18
-56 -3 -17 1 -31 13 -42 29 -26 24 -71 -11 -104 -16 -15 -30 -31 -30 -34 0 -3
-11 -16 -25 -30 -14 -14 -25 -36 -25 -49 0 -13 -11 -40 -24 -59 -21 -32 -22
-37 -9 -62 20 -38 11 -62 -41 -118 -37 -41 -50 -48 -81 -48 -32 0 -44 7 -81
47 -51 56 -61 86 -39 119 14 22 13 26 -10 60 -14 20 -25 48 -25 61 0 13 -11
35 -25 49 -14 14 -25 31 -25 39 0 8 -6 15 -14 15 -21 0 -46 39 -46 71 0 14 9
34 20 44 14 12 18 25 14 42 -5 17 0 34 15 53 17 24 21 43 21 106 l0 77 -58
-54 c-50 -46 -60 -62 -71 -109 -7 -30 -31 -134 -53 -230 -46 -201 -85 -330
-98 -330 -21 0 -3 121 67 460 l36 175 59 53 c71 66 131 148 193 267 26 50 52
93 59 96 6 4 39 9 73 13 65 7 181 -15 195 -37 3 -6 15 4 27 24 39 64 28 90
-58 133 -57 29 -82 35 -179 43 -108 9 -133 16 -119 29 11 12 91 23 162 24 60
0 81 -5 142 -34 l72 -35 15 47 c9 25 16 51 16 58 0 21 -37 50 -113 90 -67 35
-72 36 -141 30 -193 -18 -239 -19 -234 -5 8 26 240 85 293 75 17 -4 65 -24
107 -45 l77 -39 15 39 c34 84 20 104 -127 175 l-97 47 -53 -15 c-28 -9 -106
-32 -172 -51 -66 -20 -137 -39 -159 -43 -57 -10 -43 12 32 54 53 29 68 44 103
103 41 68 43 70 143 118 73 35 114 62 144 95 43 46 55 91 29 102 -8 3 -47 -9
-89 -25 -41 -17 -122 -43 -179 -58 l-104 -28 -80 -106 c-44 -57 -104 -133
-132 -167 -29 -35 -53 -65 -53 -67 0 -3 -13 -53 -29 -112 -16 -60 -57 -222
-90 -360 -63 -265 -77 -304 -218 -613 -72 -158 -168 -343 -198 -384 -8 -11
-18 -16 -22 -13 -7 8 12 54 196 483 119 277 122 285 181 535 57 240 82 337
116 455 11 37 33 72 78 124 54 61 64 79 69 118 11 102 -50 165 -203 207 -83
22 -133 48 -159 81 -32 41 -27 72 19 115 l40 38 0 101 c0 93 2 103 24 125 28
28 149 68 275 91 89 16 90 17 76 37 -24 35 -18 75 15 108 35 35 34 40 -35 120
-79 93 -93 194 -44 321 l20 54 -36 59 c-47 78 -58 124 -53 216 6 103 52 201
138 292 34 37 66 67 71 67 5 0 9 -33 9 -72z"/>
<path d="M2296 4258 c-64 -99 -80 -221 -39 -310 29 -63 99 -137 193 -203 43
-29 91 -71 108 -91 50 -61 73 -147 56 -211 -10 -37 -19 -27 -31 39 -17 88 -52
132 -168 210 -55 37 -103 68 -107 68 -24 1 8 -99 44 -137 42 -45 -9 -36 -59
10 l-23 20 0 -29 c1 -46 23 -94 72 -162 26 -34 50 -71 53 -81 5 -17 11 -18 48
-9 55 13 280 13 335 0 l42 -10 44 49 c64 71 90 130 94 214 5 89 -19 146 -93
220 -41 40 -86 68 -217 133 -192 94 -259 148 -307 243 -30 59 -30 60 -45 37z"/>
<path d="M2431 3304 c-36 -7 -72 -20 -80 -29 -14 -13 -14 -17 0 -30 12 -12 22
-13 41 -6 13 5 69 15 123 21 103 12 201 7 285 -15 41 -11 51 -11 61 1 21 25 1
42 -70 58 -86 20 -271 20 -360 0z"/>
<path d="M2455 3191 l-30 -6 -3 -110 -3 -110 191 0 190 0 0 111 0 111 -46 7
c-58 8 -258 6 -299 -3z"/>
<path d="M2330 3133 c-8 -1 -48 -7 -87 -13 l-73 -12 0 -90 c0 -89 0 -90 23
-84 13 3 48 8 79 12 31 4 61 10 67 14 8 4 11 35 9 91 -2 68 -6 84 -18 82z"/>
<path d="M2860 3051 c0 -50 1 -91 3 -91 1 -1 38 -7 82 -15 44 -8 83 -15 88
-15 4 0 7 40 7 89 l0 89 -72 12 c-40 6 -81 14 -90 16 -16 5 -18 -4 -18 -85z"/>
<path d="M2035 3071 l-50 -18 -3 -86 c-1 -48 -1 -87 0 -87 2 1 32 9 68 19 l65
18 3 86 c3 99 4 99 -83 68z"/>
<path d="M3090 3002 l0 -89 48 -11 c26 -6 55 -14 65 -17 15 -6 17 1 17 78 l0
86 -55 20 c-31 12 -60 21 -65 21 -6 0 -10 -38 -10 -88z"/>
<path d="M2435 2904 c-16 -2 -73 -9 -125 -15 -164 -19 -353 -74 -393 -114 -42
-42 -4 -55 65 -22 131 62 359 99 613 100 269 0 490 -34 614 -98 55 -27 81 -27
81 0 0 37 -149 93 -340 126 -110 20 -437 34 -515 23z"/>
<path d="M2400 2785 c-8 -2 -55 -9 -105 -16 -91 -12 -237 -48 -270 -66 -14 -8
-9 -12 30 -22 99 -25 179 -82 210 -151 10 -22 22 -40 26 -40 5 0 30 22 56 49
46 46 54 49 158 75 61 15 141 41 180 57 88 37 107 36 139 -2 30 -36 32 -54 10
-109 -9 -23 -15 -42 -13 -44 2 -2 25 -6 50 -10 44 -6 47 -5 58 21 28 66 96
118 193 147 l71 22 -44 16 c-144 54 -317 78 -549 77 -102 -1 -192 -3 -200 -4z"/>
<path d="M2730 2443 l-34 -23 31 0 c17 0 67 -7 110 -16 106 -21 107 -21 111
-2 4 22 -20 34 -109 51 -74 14 -76 13 -109 -10z"/>
<path d="M2565 2361 c-11 -5 -30 -26 -42 -48 l-23 -40 96 28 c53 16 104 29
113 29 9 0 50 -16 90 -35 41 -20 76 -34 78 -32 2 3 6 20 9 39 l6 35 -59 12
c-81 15 -243 23 -268 12z"/>
<path d="M2638 1593 l-28 -4 0 -132 c0 -73 -3 -169 -7 -214 l-6 -83 53 0 c49
0 52 1 46 23 -3 12 -6 111 -6 220 0 152 -3 197 -12 196 -7 -1 -25 -4 -40 -6z"/>
<path d="M2736 1491 c-4 -58 -10 -157 -14 -218 l-7 -113 31 0 32 0 7 103 c4
56 8 151 8 211 l2 109 -27 8 -26 7 -6 -107z"/>
<path d="M2531 1434 l-33 -55 7 -109 8 -110 32 0 33 0 -5 163 c-3 89 -6 163
-7 164 -1 1 -17 -23 -35 -53z"/>
<path d="M2503 1103 c-20 -3 -33 -10 -33 -19 0 -12 30 -14 175 -14 141 0 175
3 175 14 0 8 -17 16 -46 20 -49 6 -215 6 -271 -1z"/>
<path d="M2447 1004 c-4 -4 -7 -13 -7 -21 0 -10 41 -13 206 -13 190 0 205 1
202 18 -3 15 -22 17 -199 20 -107 1 -198 -1 -202 -4z"/>
<path d="M2519 896 c6 -7 18 -34 25 -61 21 -70 39 -85 101 -85 60 0 91 24 101
80 4 19 13 45 20 58 l14 22 -136 0 c-114 0 -135 -2 -125 -14z"/>
<path d="M2574 676 c-8 -20 46 -86 69 -86 25 0 79 56 75 77 -4 25 -135 32
-144 9z"/>
</g>
<g transform="translate(0.000000,500.000000) scale(0.100000,-0.100000)"
fill="#ffffff" stroke="none">
<path d="M0 2500 l0 -2500 2500 0 2500 0 0 2500 0 2500 -2500 0 -2500 0 0
-2500z m2696 2159 c913 -90 1665 -761 1858 -1659 146 -680 -58 -1398 -539
-1899 -339 -353 -754 -565 -1245 -637 -158 -23 -477 -15 -637 15 -885 167
-1558 858 -1709 1755 -8 50 -18 164 -21 252 -25 682 280 1327 827 1751 406
315 955 473 1466 422z"/>
<path d="M2312 4396 c-164 -173 -197 -372 -89 -533 l32 -48 -24 -60 c-47 -117
-29 -231 51 -321 61 -68 64 -80 29 -113 -36 -34 -40 -67 -10 -105 11 -14 18
-26 16 -26 -29 0 -194 -36 -259 -56 -133 -41 -128 -35 -128 -167 l0 -113 -30
-17 c-38 -23 -62 -69 -54 -102 10 -40 59 -73 152 -101 103 -31 137 -47 175
-83 46 -42 57 -72 50 -131 -5 -46 -13 -61 -60 -114 -30 -33 -61 -72 -68 -87
-18 -33 -60 -191 -134 -505 l-60 -250 -154 -360 c-165 -383 -173 -404 -159
-404 21 0 179 313 302 600 55 127 74 188 151 500 48 195 92 367 98 382 5 15
33 52 61 83 28 31 83 99 121 151 39 52 80 100 92 108 12 8 56 21 97 31 41 9
115 33 163 52 94 37 117 37 117 1 0 -60 -104 -146 -233 -194 -29 -10 -55 -28
-64 -43 -71 -117 -84 -131 -143 -161 -66 -33 -80 -56 -27 -45 17 4 107 29 200
56 92 27 175 49 185 49 9 -1 64 -25 122 -54 77 -39 107 -60 114 -78 10 -29 1
-87 -18 -113 -13 -18 -14 -18 -43 3 -16 11 -59 32 -96 47 l-67 27 -92 -21
c-132 -29 -181 -45 -186 -59 -5 -17 70 -16 188 3 107 18 111 17 222 -47 79
-45 89 -66 63 -134 -9 -25 -20 -43 -24 -42 -127 68 -139 71 -244 64 -95 -6
-130 -16 -114 -33 4 -4 53 -10 110 -14 104 -7 147 -20 218 -65 32 -20 39 -30
39 -57 0 -27 -12 -54 -36 -86 -2 -2 -9 1 -16 7 -29 23 -123 39 -196 32 -40 -4
-74 -9 -76 -11 -1 -2 -26 -49 -55 -104 -66 -125 -103 -175 -183 -251 l-64 -60
-52 -265 c-60 -304 -69 -369 -54 -369 17 0 59 151 126 453 l35 157 58 54 58
54 5 -76 c4 -67 3 -79 -14 -93 -12 -10 -19 -28 -19 -50 0 -19 -8 -45 -19 -58
-10 -13 -18 -33 -18 -45 0 -23 33 -66 50 -66 6 0 10 -6 10 -13 0 -8 11 -24 24
-36 13 -12 26 -38 29 -57 3 -19 16 -48 28 -65 16 -23 19 -33 10 -42 -6 -6 -11
-27 -11 -47 0 -27 9 -44 41 -77 22 -24 51 -46 65 -49 76 -19 176 111 135 175
-7 10 -3 23 10 39 11 14 22 42 25 63 4 21 17 48 30 60 13 12 24 28 24 34 0 7
11 17 24 23 35 16 44 66 18 101 -13 18 -18 37 -15 54 4 18 -2 33 -18 49 l-24
24 12 194 c12 191 13 195 38 213 44 32 68 92 63 156 -4 40 0 67 13 96 21 45
25 125 8 142 -9 9 -6 23 10 55 13 28 21 64 21 96 0 43 -5 57 -30 85 -42 49
-42 103 2 152 36 41 41 84 14 114 -16 18 -16 21 -1 50 22 43 86 87 153 106
104 29 147 48 180 81 45 45 43 77 -8 125 l-40 38 0 105 c0 101 -1 105 -26 125
-38 30 -123 59 -244 83 -108 21 -108 21 -89 41 29 32 25 81 -9 109 l-29 23 58
62 c76 82 102 150 97 253 -8 165 -108 275 -348 385 -129 58 -205 109 -247 164
-42 54 -67 140 -59 198 3 23 2 43 -3 43 -4 0 -31 -24 -59 -54z m65 -230 c45
-64 107 -106 278 -190 174 -86 240 -138 282 -224 55 -111 23 -249 -79 -349
-42 -41 -44 -41 -88 -33 -58 12 -262 12 -320 0 -28 -5 -46 -5 -48 1 -2 5 -19
31 -38 57 -64 89 -87 133 -92 179 l-5 45 43 -31 c24 -17 45 -29 47 -27 3 2 -8
22 -22 45 -31 46 -49 140 -24 125 97 -61 189 -127 211 -150 36 -39 68 -111 68
-156 0 -49 16 -49 23 -1 17 104 -32 192 -153 278 -113 80 -166 135 -197 203
-47 102 -41 195 19 301 l31 54 16 -41 c9 -23 30 -62 48 -86z m403 -858 c69
-13 90 -24 90 -47 0 -27 -21 -31 -82 -15 -72 19 -274 18 -357 -1 -57 -14 -66
-14 -79 -1 -62 62 220 104 428 64z m-17 -114 l37 -7 0 -111 0 -111 -193 0
-194 0 2 109 c1 69 5 111 12 113 59 20 235 23 336 7z m-413 -148 l0 -93 -52
-6 c-29 -4 -70 -9 -90 -13 l-38 -7 0 91 0 91 53 10 c55 11 94 17 115 20 9 1
12 -24 12 -93z m638 73 l52 -10 0 -91 0 -91 -37 7 c-21 4 -62 9 -90 13 l-53 6
0 94 0 94 38 -6 c20 -4 61 -11 90 -16z m-868 -112 l0 -94 -47 -11 c-27 -6 -58
-14 -71 -18 -23 -7 -23 -6 -20 82 l3 89 65 22 c36 12 66 22 68 23 1 0 2 -42 2
-93z m1035 70 l60 -22 3 -88 c1 -48 -1 -87 -5 -87 -4 0 -35 8 -68 18 l-60 18
-3 92 c-1 51 1 92 5 91 4 0 35 -10 68 -22z m-278 -182 c196 -26 380 -83 407
-127 7 -11 6 -21 -3 -32 -11 -13 -16 -13 -44 5 -44 27 -166 64 -278 86 -135
25 -572 25 -709 0 -126 -24 -225 -53 -279 -83 -39 -21 -47 -23 -59 -10 -36 36
38 80 208 122 212 53 524 69 757 39z m-120 -105 c139 -11 297 -41 381 -72 l57
-21 -65 -22 c-36 -12 -79 -28 -96 -37 -37 -20 -99 -87 -109 -118 -6 -20 -11
-21 -58 -15 -29 4 -53 9 -55 10 -2 2 4 15 13 29 10 15 18 45 19 67 1 33 -5 46
-27 65 -35 30 -40 30 -123 -4 -38 -16 -116 -41 -174 -56 -127 -34 -151 -46
-186 -91 -14 -19 -31 -35 -38 -35 -6 0 -23 22 -38 49 -35 63 -81 98 -176 132
-77 27 -77 27 -47 39 62 24 174 50 280 64 185 26 273 29 442 16z m78 -335 c93
-15 116 -25 113 -48 -4 -26 -3 -26 -147 1 l-104 18 34 21 c19 12 41 20 49 18
8 -2 33 -6 55 -10z m3 -105 c51 -12 52 -12 52 -49 0 -21 -2 -40 -5 -42 -2 -3
-37 11 -77 30 -86 42 -114 43 -223 7 -43 -14 -81 -24 -83 -22 -6 6 46 83 60
90 20 9 217 -1 276 -14z m-146 -902 c-4 -158 4 -278 18 -278 4 0 11 75 14 168
4 92 9 188 12 213 5 46 6 46 37 40 18 -4 32 -11 32 -16 -2 -69 -17 -323 -21
-362 l-6 -53 -133 0 -132 0 -7 46 c-3 26 -6 77 -6 113 1 57 5 74 35 126 l35
60 0 -91 c0 -121 11 -244 21 -244 5 0 9 64 9 143 0 78 3 172 6 209 7 70 10 74
64 77 l25 1 -3 -152z m123 -361 c0 -17 -12 -19 -168 -19 -93 0 -171 3 -174 6
-3 3 -3 12 1 21 5 13 29 15 173 13 155 -3 168 -4 168 -21z m38 -91 c12 -32
-18 -36 -214 -34 -193 3 -194 3 -197 26 l-3 22 204 0 c168 0 206 -3 210 -14z
m-87 -108 c-9 -12 -16 -33 -16 -47 0 -13 -9 -39 -21 -57 -20 -32 -24 -34 -78
-34 -67 0 -96 22 -107 80 -4 19 -13 45 -20 58 l-14 22 135 0 136 0 -15 -22z
m-65 -198 c10 -6 19 -18 19 -26 0 -21 -54 -74 -75 -74 -21 0 -75 53 -75 74 0
8 8 20 18 25 22 14 88 14 113 1z"/>
</g>
</svg>
