<?xml version="1.0" encoding="UTF-8"?>
<svg xmlns="http://www.w3.org/2000/svg" viewBox="0 0 1254 1254" role="img" aria-label="Civic Guild logo">
<g transform="translate(0.000000,1254.000000) scale(0.100000,-0.100000)"
fill="#ffffff" stroke="none">
<path d="M5983 12029 c-569 -29 -1231 -175 -1758 -387 -580 -233 -1118 -559
-1591 -964 -164 -140 -477 -455 -614 -618 -815 -968 -1261 -2091 -1341 -3380
-31 -506 41 -1152 191 -1714 98 -363 208 -654 376 -996 139 -282 216 -419 361
-638 562 -852 1300 -1507 2204 -1957 630 -312 1246 -488 1967 -560 852 -85
1830 68 2632 410 186 79 558 268 715 363 1234 744 2138 1923 2525 3292 295
1048 292 2059 -11 3119 -176 614 -493 1246 -896 1787 -275 368 -693 793 -1063
1080 -483 375 -1108 708 -1670 888 -676 218 -1356 310 -2027 275z"/>
</g>
<g transform="translate(0.000000,1254.000000) scale(0.100000,-0.100000)"
fill="#1e4ea8" stroke="none">
<path d="M5920 11699 c-916 -66 -1801 -370 -2570 -882 -475 -316 -951 -769
-1295 -1232 -662 -889 -1028 -1953 -1052 -3055 -36 -1635 699 -3206 1987
-4250 828 -671 1861 -1074 2945 -1151 236 -16 676 -6 910 21 610 71 1158 231
1701 495 567 275 1009 592 1463 1046 559 561 994 1268 1254 2039 122 362 199
709 248 1110 27 226 37 719 20 948 -113 1470 -793 2786 -1927 3724 -486 403
-1120 749 -1724 942 -330 106 -754 195 -1090 231 -184 19 -687 28 -870 14z
m35 -686 c0 -180 10 -226 77 -356 69 -132 190 -251 360 -352 45 -26 178 -93
297 -147 119 -54 254 -120 301 -145 249 -134 431 -311 532 -518 117 -240 113
-487 -12 -735 -47 -93 -101 -163 -222 -285 l-89 -91 38 -21 c132 -75 152 -216
45 -325 -20 -21 -32 -38 -28 -38 26 0 279 -46 387 -70 230 -52 463 -138 517
-190 13 -12 27 -33 33 -47 5 -13 9 -141 9 -283 l0 -260 38 -19 c49 -26 109
-85 135 -135 43 -84 18 -190 -60 -256 -56 -46 -185 -106 -293 -136 -247 -67
-322 -99 -414 -171 -59 -46 -126 -137 -147 -200 -11 -34 -10 -37 19 -59 33
-26 62 -89 62 -135 0 -65 -59 -154 -120 -179 -31 -13 -31 -14 -46 -205 l-6
-81 53 -40 c138 -102 151 -280 37 -512 -37 -76 -39 -84 -25 -100 73 -81 60
-247 -32 -420 l-39 -72 25 -62 c22 -53 25 -72 20 -132 -11 -123 -105 -280
-201 -331 l-34 -19 -6 -95 c-32 -486 -46 -702 -51 -796 l-6 -110 33 -20 c19
-12 43 -40 57 -68 22 -45 23 -53 12 -100 -11 -50 -11 -51 23 -86 46 -49 56
-72 56 -131 0 -83 -47 -152 -117 -174 -18 -6 -23 -15 -23 -41 0 -25 -7 -39
-26 -52 -77 -53 -85 -65 -101 -148 -16 -87 -58 -177 -103 -220 l-28 -27 24
-35 c67 -99 52 -202 -41 -280 -25 -20 -45 -41 -45 -47 0 -5 -12 -24 -26 -43
-85 -112 -270 -100 -352 22 -18 27 -47 58 -63 70 -36 25 -79 108 -79 152 0 41
24 100 52 130 l20 22 -36 43 c-50 58 -84 131 -97 208 -13 78 -27 102 -79 136
-35 23 -40 32 -40 64 0 33 -4 39 -27 45 -74 18 -126 89 -125 170 0 63 19 103
68 143 31 26 34 33 25 50 -6 11 -11 42 -11 69 0 57 27 107 71 131 l31 17 -6
120 c-4 66 -9 157 -13 203 l-6 83 -111 -108 c-61 -59 -128 -122 -149 -138
l-37 -30 -46 -210 c-121 -558 -224 -979 -289 -1190 -41 -128 -47 -140 -70
-131 -15 5 -16 16 -10 84 15 178 68 471 196 1087 l89 430 42 35 c207 175 296
269 402 430 72 110 185 312 251 452 26 54 54 102 63 107 21 11 155 29 282 37
88 6 105 4 235 -30 90 -24 148 -45 163 -58 l22 -21 24 22 c34 32 79 129 84
182 9 93 -23 126 -207 219 -174 87 -179 88 -393 100 -268 15 -348 29 -348 61
0 28 147 53 390 65 113 6 145 4 195 -11 64 -18 233 -96 302 -139 l42 -27 27
53 c67 132 80 221 42 278 -42 61 -398 256 -486 266 -27 4 -101 -3 -172 -15
-286 -46 -478 -63 -527 -47 -39 13 -28 41 25 64 97 41 570 152 649 152 41 0
330 -111 348 -134 11 -14 132 -86 144 -86 26 0 91 179 91 251 0 100 -30 131
-222 229 -262 136 -346 172 -397 172 -27 -1 -136 -28 -266 -67 -534 -161 -659
-195 -722 -195 -93 0 -58 35 125 127 l135 67 73 110 c40 61 91 146 115 190 46
86 42 83 198 141 100 38 272 127 346 180 80 56 173 158 198 214 36 81 17 171
-36 171 -12 0 -65 -19 -117 -41 -162 -70 -360 -136 -567 -189 -109 -28 -211
-60 -228 -72 -16 -11 -116 -136 -222 -277 -106 -141 -245 -315 -309 -386 -64
-72 -123 -145 -130 -163 -21 -47 -166 -602 -269 -1027 -190 -784 -205 -841
-241 -925 -386 -899 -695 -1540 -843 -1752 -28 -41 -51 -49 -51 -18 0 25 123
329 245 605 117 265 210 480 275 635 26 63 97 230 158 370 60 140 116 280 125
310 9 30 71 285 137 565 204 858 309 1253 351 1322 22 36 49 68 217 257 l103
116 -11 36 c-13 40 -6 97 16 132 14 21 13 29 -2 75 -25 77 -62 135 -126 198
-82 81 -180 128 -393 189 -262 74 -370 133 -417 223 -57 112 4 247 142 317
l40 20 0 268 c0 309 0 309 91 354 139 68 464 159 704 197 72 12 145 24 164 27
l34 5 -36 37 c-41 42 -67 97 -67 142 0 68 52 145 123 181 l37 19 -15 38 c-22
52 -57 103 -114 166 -159 176 -221 316 -221 502 0 122 22 223 81 369 l48 120
-20 25 c-98 122 -176 282 -203 412 -18 89 -21 257 -5 344 35 198 125 382 277
572 65 80 226 242 242 242 3 0 6 -71 5 -157z"/>
<path d="M5764 10697 c-62 -92 -121 -216 -146 -304 -17 -60 -23 -104 -22 -193
0 -135 15 -201 79 -336 80 -166 195 -288 414 -436 272 -184 381 -301 438 -473
22 -67 27 -98 27 -190 1 -183 -42 -254 -57 -94 -9 106 -29 176 -75 263 -65
124 -146 196 -382 342 -52 32 -132 86 -177 120 l-82 62 -7 -35 c-19 -101 23
-229 110 -336 26 -32 46 -62 44 -68 -6 -17 -123 48 -180 100 l-58 53 0 -73 c0
-137 46 -250 156 -384 75 -92 150 -208 159 -248 4 -15 11 -30 16 -32 4 -3 46
1 91 10 152 28 241 35 438 35 195 1 282 -7 438 -37 l83 -16 51 49 c143 139
269 349 302 501 46 211 -12 420 -169 604 -120 141 -275 246 -555 375 -244 112
-377 181 -472 245 -197 133 -333 299 -393 480 -15 44 -27 79 -28 79 -1 0 -21
-28 -43 -63z"/>
<path d="M6300 8329 c-108 -13 -275 -48 -344 -73 -94 -33 -115 -100 -45 -144
30 -19 32 -19 78 -1 26 9 98 27 161 38 313 56 644 46 917 -29 67 -18 76 -19
97 -5 58 39 52 101 -13 135 -138 70 -574 111 -851 79z"/>
<path d="M6400 8039 c-58 -4 -158 -18 -222 -30 l-118 -21 0 -61 c-4 -537 -5
-502 16 -500 136 15 476 21 679 13 132 -6 246 -12 253 -15 9 -3 12 58 12 284
l0 288 -42 7 c-252 37 -418 47 -578 35z"/>
<path d="M7170 7643 c0 -143 4 -233 10 -233 25 0 246 -34 333 -51 54 -10 102
-19 107 -19 5 0 9 101 10 224 1 206 -1 226 -17 234 -20 10 -206 45 -350 66
l-93 13 0 -234z"/>
<path d="M5810 7864 c-8 -1 -76 -13 -150 -24 -74 -12 -156 -26 -182 -32 l-48
-10 0 -229 c0 -192 2 -229 14 -229 8 0 46 7 84 15 76 16 234 40 325 50 l57 6
0 230 0 229 -42 -1 c-24 -1 -50 -3 -58 -5z"/>
<path d="M5222 7744 c-45 -13 -122 -39 -170 -56 l-87 -33 -3 -224 c-2 -210 -1
-223 15 -216 20 7 233 68 301 85 l42 11 0 229 c0 127 -3 230 -7 229 -5 0 -45
-11 -91 -25z"/>
<path d="M7730 7541 l0 -229 73 -18 c63 -15 197 -58 250 -79 16 -7 17 7 17
215 l0 221 -62 29 c-54 24 -253 90 -272 90 -3 0 -6 -103 -6 -229z"/>
<path d="M6107 7290 c-489 -41 -961 -144 -1212 -265 -118 -56 -158 -128 -99
-174 35 -28 43 -27 112 15 202 120 609 218 1127 270 205 21 738 24 945 5 523
-47 925 -144 1154 -277 55 -33 60 -34 82 -19 66 43 46 106 -54 166 -133 79
-464 175 -787 228 -262 43 -390 53 -780 56 -209 2 -429 -1 -488 -5z"/>
<path d="M6190 7004 c-505 -45 -901 -123 -1120 -221 l-55 -25 115 -32 c63 -18
142 -42 175 -55 179 -67 349 -232 406 -394 13 -37 15 -38 49 -32 19 4 35 8 35
8 3 9 123 156 139 170 46 39 121 68 292 111 268 67 343 91 521 162 104 41 177
64 202 64 183 0 246 -227 116 -418 l-25 -36 98 -17 c53 -9 114 -21 134 -27
l36 -10 40 82 c21 44 57 102 78 128 90 108 239 195 414 244 52 14 113 32 135
39 l40 13 -65 30 c-174 80 -512 159 -853 198 -126 15 -794 28 -907 18z"/>
<path d="M6880 6157 c-25 -18 -64 -45 -88 -59 l-43 -25 87 -7 c128 -11 317
-43 421 -72 51 -15 99 -24 107 -21 8 3 22 17 32 32 14 21 14 30 4 55 -16 38
-75 61 -246 94 -219 41 -222 41 -274 3z"/>
<path d="M6540 5940 c-127 -8 -155 -23 -202 -108 -20 -37 -49 -86 -63 -109
l-25 -42 87 30 c183 62 395 119 444 119 60 0 133 -27 313 -117 100 -50 131
-62 137 -51 8 11 12 62 13 170 l1 32 -95 23 c-181 42 -435 64 -610 53z"/>
<path d="M6597 4000 c-27 -5 -52 -12 -55 -15 -4 -4 -10 -237 -13 -519 -4 -387
-9 -517 -19 -535 -12 -23 -13 -23 -23 -6 -12 22 -36 334 -37 485 0 58 -3 163
-7 233 l-6 128 -24 -48 c-37 -73 -83 -153 -116 -202 l-30 -44 7 -236 c4 -130
10 -260 13 -288 l6 -53 343 0 344 0 0 33 c0 72 43 830 55 968 l6 66 -87 22
c-47 12 -88 21 -89 19 -1 -2 -8 -129 -14 -283 -16 -369 -39 -754 -47 -782 -8
-27 -19 -29 -29 -5 -13 28 -22 476 -17 785 l5 287 -59 -1 c-32 -1 -81 -5 -107
-9z"/>
<path d="M6248 2773 c-49 -5 -70 -34 -56 -74 l10 -29 433 0 c471 0 445 -3 445
55 0 49 -6 50 -414 51 -210 1 -398 -1 -418 -3z"/>
<path d="M6150 2533 c-24 -8 -40 -35 -40 -65 0 -57 9 -58 532 -58 528 0 518
-1 518 65 0 66 11 65 -520 64 -261 0 -482 -3 -490 -6z"/>
<path d="M6402 2280 l-124 -5 27 -25 c38 -36 53 -69 70 -156 16 -86 48 -147
100 -193 l36 -31 127 0 128 0 31 33 c70 73 84 107 108 249 3 21 21 57 39 81
l34 44 -106 7 c-112 6 -269 5 -470 -4z"/>
<path d="M6489 1735 c-14 -8 -32 -28 -39 -45 -17 -42 5 -91 49 -110 19 -7 34
-22 37 -36 18 -69 122 -98 169 -48 14 15 25 35 25 45 0 10 15 25 38 36 63 31
77 90 33 144 -18 23 -26 24 -153 27 -102 1 -139 -1 -159 -13z"/>
</g>
<g transform="translate(0.000000,1254.000000) scale(0.100000,-0.100000)"
fill="#ffffff" stroke="none">
<path d="M5855 11079 c-236 -224 -379 -480 -421 -754 -39 -248 36 -507 204
-713 24 -30 32 -46 24 -55 -19 -24 -90 -216 -108 -293 -13 -53 -18 -114 -18
-184 2 -178 55 -303 199 -470 76 -88 131 -170 140 -210 5 -22 0 -28 -41 -50
-93 -49 -130 -160 -84 -255 12 -25 35 -56 51 -67 36 -27 37 -38 3 -38 -15 0
-94 -11 -178 -25 -352 -60 -722 -178 -770 -247 -14 -19 -16 -63 -16 -294 l0
-273 -52 -30 c-228 -130 -204 -346 49 -451 41 -17 148 -52 236 -77 192 -54
294 -102 374 -177 75 -69 109 -119 138 -198 23 -63 23 -63 4 -100 -21 -40 -24
-92 -10 -131 10 -25 17 -16 -240 -310 -32 -37 -68 -85 -79 -106 -44 -87 -152
-501 -384 -1471 l-104 -435 -112 -260 c-62 -143 -129 -300 -150 -350 -42 -101
-182 -426 -320 -740 -97 -221 -220 -525 -220 -544 0 -25 21 -8 58 47 145 216
459 864 755 1557 112 263 116 277 177 530 210 878 376 1525 408 1598 9 20 67
91 127 158 61 66 200 240 310 387 110 146 211 274 225 284 14 10 104 38 200
64 256 66 384 108 542 174 77 33 154 60 169 60 41 0 69 -35 69 -85 0 -94 -94
-216 -243 -316 -110 -74 -185 -112 -342 -174 -66 -26 -125 -52 -132 -57 -7 -5
-30 -42 -51 -81 -21 -40 -71 -123 -111 -185 l-73 -112 -151 -78 c-166 -84
-189 -109 -102 -105 48 2 325 77 665 181 253 77 287 85 329 79 72 -9 496 -219
554 -274 58 -55 70 -124 41 -224 -18 -61 -70 -169 -82 -169 -10 0 -123 69
-147 90 -36 32 -300 130 -349 130 -88 0 -557 -108 -653 -150 -24 -10 -43 -24
-43 -30 0 -40 154 -33 501 21 110 17 208 27 227 24 67 -12 287 -125 423 -216
76 -51 97 -98 81 -177 -13 -60 -80 -212 -94 -212 -5 0 -43 20 -86 45 -42 25
-117 62 -167 82 l-90 38 -160 0 c-179 0 -376 -21 -402 -41 -17 -13 -17 -15 0
-28 25 -19 71 -25 322 -40 l216 -13 154 -76 c84 -42 170 -90 189 -107 42 -38
61 -88 52 -143 -8 -49 -58 -146 -93 -179 l-25 -23 -19 24 c-16 20 -49 32 -162
61 -135 34 -147 35 -252 29 -60 -4 -147 -12 -193 -19 l-82 -12 -54 -112 c-55
-117 -184 -352 -244 -446 -85 -134 -247 -308 -382 -410 -25 -18 -48 -36 -53
-40 -7 -6 -31 -114 -142 -655 -128 -624 -181 -975 -144 -963 38 13 178 541
337 1274 l59 267 64 50 c35 28 103 91 151 140 l86 91 6 -45 c3 -24 10 -118 15
-209 8 -127 7 -166 -2 -169 -7 -2 -29 -20 -49 -41 -46 -45 -58 -97 -36 -157
l15 -42 -34 -23 c-18 -13 -42 -41 -53 -64 -47 -95 -9 -194 91 -239 34 -16 39
-22 39 -51 0 -28 7 -38 45 -64 55 -38 61 -50 79 -144 18 -89 44 -143 98 -202
36 -39 39 -46 25 -57 -34 -26 -57 -81 -57 -135 0 -68 23 -118 71 -151 21 -14
43 -38 49 -52 27 -63 119 -119 194 -119 78 0 178 60 192 116 3 12 23 34 44 48
88 58 106 208 34 287 -14 16 -12 22 24 71 56 75 71 109 88 194 17 94 24 106
76 141 36 24 44 35 46 65 3 32 8 38 36 48 80 26 132 134 105 218 -6 20 -28 55
-49 77 -38 40 -39 40 -28 87 15 63 -1 116 -46 156 -19 16 -39 31 -45 33 -8 3
-7 67 4 229 8 124 22 348 32 498 l17 274 51 33 c59 39 113 108 152 191 24 51
28 72 28 149 0 73 -4 98 -22 131 l-21 41 29 49 c40 68 86 189 94 249 8 62 -8
138 -39 186 l-24 35 44 89 c102 208 93 393 -22 482 -83 64 -76 42 -62 196 l12
137 42 20 c114 55 140 222 47 299 l-35 29 33 72 c25 56 48 86 104 138 81 76
157 117 290 157 321 95 374 117 447 183 78 70 97 156 54 247 -25 54 -60 89
-132 131 l-44 26 0 272 c0 226 -3 275 -15 293 -54 78 -424 199 -770 253 -77
12 -146 24 -153 26 -9 3 -1 16 22 38 45 42 68 96 68 158 -1 67 -34 121 -99
162 l-52 33 85 84 c191 188 274 333 314 543 15 83 8 244 -15 331 -58 214 -229
432 -459 587 -104 69 -179 108 -424 219 -206 94 -275 131 -394 211 -180 122
-300 292 -339 475 -6 29 -9 113 -7 188 2 74 0 135 -4 135 -4 0 -45 -37 -93
-81z m13 -472 c60 -134 216 -306 372 -409 94 -62 190 -112 451 -233 280 -130
374 -190 509 -325 127 -128 168 -188 212 -317 39 -112 46 -211 24 -321 -34
-168 -113 -309 -268 -482 -74 -82 -95 -100 -112 -96 -49 14 -195 37 -304 47
-157 16 -422 6 -582 -22 -69 -12 -131 -22 -138 -23 -8 0 -22 20 -32 46 -20 53
-79 142 -181 273 -46 60 -79 115 -98 165 -31 81 -47 188 -36 239 l7 32 59 -56
c50 -48 163 -115 174 -103 2 2 -17 28 -42 58 -85 103 -131 226 -118 320 4 27
11 53 16 56 5 3 31 -12 57 -34 26 -22 106 -77 177 -122 213 -135 237 -152 305
-220 104 -104 165 -236 179 -392 5 -49 11 -92 15 -96 24 -23 41 92 33 222 -13
228 -123 379 -428 586 -166 113 -316 248 -379 340 -134 197 -183 421 -136 620
20 85 117 291 172 365 l37 49 17 -59 c9 -33 26 -81 38 -108z m970 -2277 c171
-23 297 -58 342 -97 42 -35 40 -72 -4 -111 l-34 -30 -83 25 c-163 47 -257 57
-509 57 -200 0 -254 -4 -365 -23 -71 -13 -156 -32 -187 -43 -61 -21 -77 -18
-112 21 -25 28 -23 67 5 97 39 41 259 95 463 114 115 10 369 5 484 -10z m2
-299 c36 -6 93 -16 128 -22 l62 -11 0 -289 0 -289 -147 7 c-189 10 -519 10
-695 1 l-138 -8 0 284 0 284 68 16 c37 8 103 19 147 25 44 6 94 13 110 15 53
8 398 -2 465 -13z m-930 -391 c0 -222 -1 -240 -17 -240 -46 0 -211 -23 -327
-45 -71 -14 -131 -24 -132 -22 -5 5 -8 172 -6 318 l2 156 128 22 c178 31 292
49 325 50 l27 1 0 -240z m1385 225 c55 -8 153 -24 218 -37 l117 -22 0 -238 c0
-131 -2 -238 -4 -238 -3 0 -38 7 -78 15 -91 20 -324 55 -360 55 l-28 0 0 240
c0 222 1 240 18 240 9 0 62 -7 117 -15z m-1972 -162 c6 -82 3 -391 -4 -396 -2
-2 -60 -19 -129 -37 -69 -17 -147 -40 -174 -51 -27 -10 -53 -16 -57 -13 -10 6
-11 425 -1 440 4 6 18 17 31 23 21 12 308 110 322 111 4 0 9 -35 12 -77z
m2547 32 c63 -20 135 -46 160 -58 l45 -22 3 -215 c1 -118 0 -220 -2 -226 -3
-8 -34 -1 -98 21 -51 18 -128 41 -170 51 l-78 18 0 238 c0 185 3 237 13 233 6
-2 64 -20 127 -40z m-790 -450 c532 -55 1042 -198 1150 -322 39 -43 38 -77 0
-113 l-30 -28 -103 53 c-172 90 -398 156 -707 209 -430 73 -1012 86 -1485 31
-437 -50 -814 -147 -998 -256 l-68 -40 -34 21 c-42 26 -52 57 -31 98 75 144
719 313 1382 362 182 13 743 4 924 -15z m-17 -290 c238 -25 499 -74 696 -132
92 -26 217 -76 246 -97 17 -12 13 -15 -41 -30 -244 -68 -328 -103 -433 -182
-79 -59 -131 -124 -178 -223 -20 -42 -37 -78 -39 -79 -1 -2 -42 5 -91 16 -48
11 -111 23 -139 27 l-52 7 35 56 c81 135 83 257 7 342 -41 45 -103 65 -161 51
-21 -4 -99 -33 -174 -64 -136 -56 -360 -124 -565 -172 -171 -40 -220 -69 -310
-181 -46 -56 -83 -94 -94 -94 -10 0 -25 -2 -33 -5 -10 -4 -20 11 -36 51 -31
81 -103 186 -164 238 -117 99 -194 135 -467 214 l-65 19 66 31 c124 58 400
128 673 172 103 16 210 28 496 54 104 9 682 -4 823 -19z m186 -856 c98 -24
153 -52 159 -83 6 -30 -7 -65 -32 -81 -20 -13 -28 -14 -64 -1 -101 36 -394 86
-502 86 -31 0 -60 3 -63 6 -4 4 25 26 64 50 39 24 81 52 94 62 23 18 27 18
137 1 62 -10 155 -28 207 -40z m-269 -214 c119 -20 269 -55 273 -63 5 -9 -11
-213 -17 -219 -2 -2 -55 21 -117 53 -160 80 -257 120 -309 128 -54 8 -163 -18
-396 -95 -83 -27 -155 -49 -161 -49 -6 0 19 50 56 112 60 101 70 113 116 135
49 23 55 23 255 19 118 -3 245 -12 300 -21z m-218 -2322 c-4 -481 7 -698 33
-671 10 9 24 217 40 583 8 198 18 392 21 431 l5 71 92 -22 92 -21 -3 -45 c-1
-24 -9 -150 -17 -279 -8 -129 -19 -329 -25 -445 -5 -115 -12 -232 -15 -260
l-6 -50 -347 3 c-190 2 -347 4 -348 5 -1 1 -7 128 -14 282 l-12 280 50 81 c27
44 69 118 93 165 l44 84 7 -255 c7 -277 24 -579 34 -604 12 -32 23 -15 28 47
3 34 8 270 11 525 4 255 9 469 11 477 5 13 105 31 189 34 l40 1 -3 -417z m309
-839 c22 -20 24 -53 6 -78 -13 -17 -41 -18 -442 -18 -401 0 -429 1 -442 18
-18 24 -16 59 3 75 25 21 179 27 538 23 281 -3 321 -6 337 -20z m28 -223 c69
-14 94 -68 51 -111 -19 -19 -33 -20 -510 -20 l-491 0 -24 25 c-30 29 -31 45
-5 78 16 20 32 27 68 30 99 7 869 6 911 -2z m-109 -259 c0 -5 -9 -17 -21 -28
-33 -30 -57 -86 -69 -159 -12 -78 -33 -123 -85 -182 l-37 -43 -137 0 -138 0
-42 43 c-56 55 -78 100 -91 183 -12 73 -48 147 -80 164 -11 6 -20 15 -20 20 0
6 135 10 360 10 198 0 360 -4 360 -8z m-199 -545 c39 -30 51 -96 24 -133 -8
-12 -28 -27 -45 -34 -16 -7 -30 -19 -30 -27 0 -8 -16 -31 -35 -50 -32 -32 -39
-35 -78 -30 -43 6 -97 51 -97 82 0 8 -13 21 -29 30 -64 33 -78 93 -35 144 l26
31 141 0 c96 -1 147 -5 158 -13z"/>
</g>
</svg>
