<?xml version="1.0" encoding="UTF-8"?>
<svg xmlns="http://www.w3.org/2000/svg" viewBox="0 0 1254 1254" role="img" aria-label="Civic Guild logo">
<g transform="translate(0.000000,1254.000000) scale(0.100000,-0.100000)"
fill="#ffffff" stroke="none">
</g>
<g transform="translate(0.000000,1254.000000) scale(0.100000,-0.100000)"
fill="#0a2a5e" stroke="none">
<path d="M5920 11699 c-916 -66 -1801 -370 -2570 -882 -475 -316 -951 -769
-1295 -1232 -662 -889 -1028 -1953 -1052 -3055 -36 -1635 699 -3206 1987
-4250 828 -671 1861 -1074 2945 -1151 236 -16 676 -6 910 21 610 71 1158 231
1701 495 567 275 1009 592 1463 1046 559 561 994 1268 1254 2039 122 362 199
709 248 1110 27 226 37 719 20 948 -113 1470 -793 2786 -1927 3724 -486 403
-1120 749 -1724 942 -330 106 -754 195 -1090 231 -184 19 -687 28 -870 14z
m35 -686 c0 -180 10 -226 77 -356 69 -132 190 -251 360 -352 45 -26 178 -93
297 -147 119 -54 254 -120 301 -145 249 -134 431 -311 532 -518 117 -240 113
-487 -12 -735 -47 -93 -101 -163 -222 -285 l-89 -91 38 -21 c132 -75 152 -216
45 -325 -20 -21 -32 -38 -28 -38 26 0 279 -46 387 -70 230 -52 463 -138 517
-190 13 -12 27 -33 33 -47 5 -13 9 -141 9 -283 l0 -260 38 -19 c49 -26 109
-85 135 -135 43 -84 18 -190 -60 -256 -56 -46 -185 -106 -293 -136 -247 -67
-322 -99 -414 -171 -59 -46 -126 -137 -147 -200 -11 -34 -10 -37 19 -59 33
-26 62 -89 62 -135 0 -65 -59 -154 -120 -179 -31 -13 -31 -14 -46 -205 l-6
-81 53 -40 c138 -102 151 -280 37 -512 -37 -76 -39 -84 -25 -100 73 -81 60
-247 -32 -420 l-39 -72 25 -62 c22 -53 25 -72 20 -132 -11 -123 -105 -280
-201 -331 l-34 -19 -6 -95 c-32 -486 -46 -702 -51 -796 l-6 -110 33 -20 c19
-12 43 -40 57 -68 22 -45 23 -53 12 -100 -11 -50 -11 -51 23 -86 46 -49 56
-72 56 -131 0 -83 -47 -152 -117 -174 -18 -6 -23 -15 -23 -41 0 -25 -7 -39
-26 -52 -77 -53 -85 -65 -101 -148 -16 -87 -58 -177 -103 -220 l-28 -27 24
-35 c67 -99 52 -202 -41 -280 -25 -20 -45 -41 -45 -47 0 -5 -12 -24 -26 -43
-85 -112 -270 -100 -352 22 -18 27 -47 58 -63 70 -36 25 -79 108 -79 152 0 41
24 100 52 130 l20 22 -36 43 c-50 58 -84 131 -97 208 -13 78 -27 102 -79 136
-35 23 -40 32 -40 64 0 33 -4 39 -27 45 -74 18 -126 89 -125 170 0 63 19 103
68 143 31 26 34 33 25 50 -6 11 -11 42 -11 69 0 57 27 107 71 131 l31 17 -6
120 c-4 66 -9 157 -13 203 l-6 83 -111 -108 c-61 -59 -128 -122 -149 -138
l-37 -30 -46 -210 c-121 -558 -224 -979 -289 -1190 -41 -128 -47 -140 -70
-131 -15 5 -16 16 -10 84 15 178 68 471 196 1087 l89 430 42 35 c207 175 296
269 402 430 72 110 185 312 251 452 26 54 54 102 63 107 21 11 155 29 282 37
88 6 105 4 235 -30 90 -24 148 -45 163 -58 l22 -21 24 22 c34 32 79 129 84
182 9 93 -23 126 -207 219 -174 87 -179 88 -393 100 -268 15 -348 29 -348 61
0 28 147 53 390 65 113 6 145 4 195 -11 64 -18 233 -96 302 -139 l42 -27 27
53 c67 132 80 221 42 278 -42 61 -398 256 -486 266 -27 4 -101 -3 -172 -15
-286 -46 -478 -63 -527 -47 -39 13 -28 41 25 64 97 41 570 152 649 152 41 0
330 -111 348 -134 11 -14 132 -86 144 -86 26 0 91 179 91 251 0 100 -30 131
-222 229 -262 136 -346 172 -397 172 -27 -1 -136 -28 -266 -67 -534 -161 -659
-195 -722 -195 -93 0 -58 35 125 127 l135 67 73 110 c40 61 91 146 115 190 46
86 42 83 198 141 100 38 272 127 346 180 80 56 173 158 198 214 36 81 17 171
-36 171 -12 0 -65 -19 -117 -41 -162 -70 -360 -136 -567 -189 -109 -28 -211
-60 -228 -72 -16 -11 -116 -136 -222 -277 -106 -141 -245 -315 -309 -386 -64
-72 -123 -145 -130 -163 -21 -47 -166 -602 -269 -1027 -190 -784 -205 -841
-241 -925 -386 -899 -695 -1540 -843 -1752 -28 -41 -51 -49 -51 -18 0 25 123
329 245 605 117 265 210 480 275 635 26 63 97 230 158 370 60 140 116 280 125
310 9 30 71 285 137 565 204 858 309 1253 351 1322 22 36 49 68 217 257 l103
116 -11 36 c-13 40 -6 97 16 132 14 21 13 29 -2 75 -25 77 -62 135 -126 198
-82 81 -180 128 -393 189 -262 74 -370 133 -417 223 -57 112 4 247 142 317
l40 20 0 268 c0 309 0 309 91 354 139 68 464 159 704 197 72 12 145 24 164 27
l34 5 -36 37 c-41 42 -67 97 -67 142 0 68 52 145 123 181 l37 19 -15 38 c-22
52 -57 103 -114 166 -159 176 -221 316 -221 502 0 122 22 223 81 369 l48 120
-20 25 c-98 122 -176 282 -203 412 -18 89 -21 257 -5 344 35 198 125 382 277
572 65 80 226 242 242 242 3 0 6 -71 5 -157z"/>
<path d="M5764 10697 c-62 -92 -121 -216 -146 -304 -17 -60 -23 -104 -22 -193
0 -135 15 -201 79 -336 80 -166 195 -288 414 -436 272 -184 381 -301 438 -473
22 -67 27 -98 27 -190 1 -183 -42 -254 -57 -94 -9 106 -29 176 -75 263 -65
124 -146 196 -382 342 -52 32 -132 86 -177 120 l-82 62 -7 -35 c-19 -101 23
-229 110 -336 26 -32 46 -62 44 -68 -6 -17 -123 48 -180 100 l-58 53 0 -73 c0
-137 46 -250 156 -384 75 -92 150 -208 159 -248 4 -15 11 -30 16 -32 4 -3 46
1 91 10 152 28 241 35 438 35 195 1 282 -7 438 -37 l83 -16 51 49 c143 139
269 349 302 501 46 211 -12 420 -169 604 -120 141 -275 246 -555 375 -244 112
-377 181 -472 245 -197 133 -333 299 -393 480 -15 44 -27 79 -28 79 -1 0 -21
-28 -43 -63z"/>
<path d="M6300 8329 c-108 -13 -275 -48 -344 -73 -94 -33 -115 -100 -45 -144
30 -19 32 -19 78 -1 26 9 98 27 161 38 313 56 644 46 917 -29 67 -18 76 -19
97 -5 58 39 52 101 -13 135 -138 70 -574 111 -851 79z"/>
<path d="M6400 8039 c-58 -4 -158 -18 -222 -30 l-118 -21 0 -61 c-4 -537 -5
-502 16 -500 136 15 476 21 679 13 132 -6 246 -12 253 -15 9 -3 12 58 12 284
l0 288 -42 7 c-252 37 -418 47 -578 35z"/>
<path d="M7170 7643 c0 -143 4 -233 10 -233 25 0 246 -34 333 -51 54 -10 102
-19 107 -19 5 0 9 101 10 224 1 206 -1 226 -17 234 -20 10 -206 45 -350 66
l-93 13 0 -234z"/>
<path d="M5810 7864 c-8 -1 -76 -13 -150 -24 -74 -12 -156 -26 -182 -32 l-48
-10 0 -229 c0 -192 2 -229 14 -229 8 0 46 7 84 15 76 16 234 40 325 50 l57 6
0 230 0 229 -42 -1 c-24 -1 -50 -3 -58 -5z"/>
<path d="M5222 7744 c-45 -13 -122 -39 -170 -56 l-87 -33 -3 -224 c-2 -210 -1
-223 15 -216 20 7 233 68 301 85 l42 11 0 229 c0 127 -3 230 -7 229 -5 0 -45
-11 -91 -25z"/>
<path d="M7730 7541 l0 -229 73 -18 c63 -15 197 -58 250 -79 16 -7 17 7 17
215 l0 221 -62 29 c-54 24 -253 90 -272 90 -3 0 -6 -103 -6 -229z"/>
<path d="M6107 7290 c-489 -41 -961 -144 -1212 -265 -118 -56 -158 -128 -99
-174 35 -28 43 -27 112 15 202 120 609 218 1127 270 205 21 738 24 945 5 523
-47 925 -144 1154 -277 55 -33 60 -34 82 -19 66 43 46 106 -54 166 -133 79
-464 175 -787 228 -262 43 -390 53 -780 56 -209 2 -429 -1 -488 -5z"/>
<path d="M6190 7004 c-505 -45 -901 -123 -1120 -221 l-55 -25 115 -32 c63 -18
142 -42 175 -55 179 -67 349 -232 406 -394 13 -37 15 -38 49 -32 19 4 35 8 35
8 3 9 123 156 139 170 46 39 121 68 292 111 268 67 343 91 521 162 104 41 177
64 202 64 183 0 246 -227 116 -418 l-25 -36 98 -17 c53 -9 114 -21 134 -27
l36 -10 40 82 c21 44 57 102 78 128 90 108 239 195 414 244 52 14 113 32 135
39 l40 13 -65 30 c-174 80 -512 159 -853 198 -126 15 -794 28 -907 18z"/>
<path d="M6880 6157 c-25 -18 -64 -45 -88 -59 l-43 -25 87 -7 c128 -11 317
-43 421 -72 51 -15 99 -24 107 -21 8 3 22 17 32 32 14 21 14 30 4 55 -16 38
-75 61 -246 94 -219 41 -222 41 -274 3z"/>
<path d="M6540 5940 c-127 -8 -155 -23 -202 -108 -20 -37 -49 -86 -63 -109
l-25 -42 87 30 c183 62 395 119 444 119 60 0 133 -27 313 -117 100 -50 131
-62 137 -51 8 11 12 62 13 170 l1 32 -95 23 c-181 42 -435 64 -610 53z"/>
<path d="M6597 4000 c-27 -5 -52 -12 -55 -15 -4 -4 -10 -237 -13 -519 -4 -387
-9 -517 -19 -535 -12 -23 -13 -23 -23 -6 -12 22 -36 334 -37 485 0 58 -3 163
-7 233 l-6 128 -24 -48 c-37 -73 -83 -153 -116 -202 l-30 -44 7 -236 c4 -130
10 -260 13 -288 l6 -53 343 0 344 0 0 33 c0 72 43 830 55 968 l6 66 -87 22
c-47 12 -88 21 -89 19 -1 -2 -8 -129 -14 -283 -16 -369 -39 -754 -47 -782 -8
-27 -19 -29 -29 -5 -13 28 -22 476 -17 785 l5 287 -59 -1 c-32 -1 -81 -5 -107
-9z"/>
<path d="M6248 2773 c-49 -5 -70 -34 -56 -74 l10 -29 433 0 c471 0 445 -3 445
55 0 49 -6 50 -414 51 -210 1 -398 -1 -418 -3z"/>
<path d="M6150 2533 c-24 -8 -40 -35 -40 -65 0 -57 9 -58 532 -58 528 0 518
-1 518 65 0 66 11 65 -520 64 -261 0 -482 -3 -490 -6z"/>
<path d="M6402 2280 l-124 -5 27 -25 c38 -36 53 -69 70 -156 16 -86 48 -147
100 -193 l36 -31 127 0 128 0 31 33 c70 73 84 107 108 249 3 21 21 57 39 81
l34 44 -106 7 c-112 6 -269 5 -470 -4z"/>
<path d="M6489 1735 c-14 -8 -32 -28 -39 -45 -17 -42 5 -91 49 -110 19 -7 34
-22 37 -36 18 -69 122 -98 169 -48 14 15 25 35 25 45 0 10 15 25 38 36 63 31
77 90 33 144 -18 23 -26 24 -153 27 -102 1 -139 -1 -159 -13z"/>
</g>
<g transform="translate(0.000000,1254.000000) scale(0.100000,-0.100000)"
fill="#ffffff" stroke="none">
<path d="M0 6270 l0 -6270 6270 0 6270 0 0 6270 0 6270 -6270 0 -6270 0 0
-6270z m6815 5416 c567 -65 1143 -224 1635 -451 1407 -647 2457 -1866 2885
-3345 246 -851 277 -1726 89 -2585 -220 -1012 -720 -1926 -1449 -2650 -945
-939 -2184 -1482 -3502 -1534 -1052 -42 -2101 241 -2993 807 -642 408 -1164
919 -1584 1550 -151 228 -240 381 -355 617 -275 559 -442 1140 -517 1792 -21
187 -30 699 -15 890 66 824 295 1580 687 2264 460 805 1125 1479 1917 1943
710 415 1489 657 2322 720 130 10 747 -3 880 -18z"/>
<path d="M5888 11115 c-98 -83 -216 -223 -289 -342 -154 -250 -211 -516 -161
-757 25 -120 105 -290 180 -382 46 -57 48 -63 36 -85 -7 -13 -31 -69 -53 -124
-79 -199 -91 -379 -36 -544 34 -99 75 -165 179 -286 63 -72 136 -185 136 -209
0 -2 -20 -16 -45 -30 -55 -33 -90 -78 -106 -138 -11 -40 -10 -52 6 -94 10 -27
35 -66 55 -86 l37 -38 -31 -5 c-17 -3 -87 -14 -156 -25 -356 -59 -712 -170
-780 -244 l-25 -28 -3 -273 -3 -274 -63 -39 c-85 -53 -129 -116 -134 -194 -12
-157 111 -243 493 -343 246 -65 411 -199 465 -381 10 -35 10 -45 -5 -73 -17
-34 -22 -103 -10 -141 7 -22 -8 -42 -198 -254 -55 -61 -108 -128 -119 -149
-44 -88 -146 -473 -343 -1302 -69 -291 -132 -552 -140 -578 -14 -46 -291 -701
-473 -1117 -47 -107 -109 -251 -139 -320 -82 -187 -193 -466 -193 -484 0 -48
45 6 136 166 78 137 298 573 379 753 32 72 92 204 133 295 40 91 120 273 177
405 107 251 131 330 245 825 98 424 312 1245 337 1293 8 16 62 82 120 146 99
109 216 258 423 538 55 74 103 129 122 139 18 9 118 39 222 66 233 60 356 101
525 173 71 30 141 55 154 55 60 0 81 -94 40 -175 -77 -149 -261 -279 -566
-400 l-131 -51 -50 -92 c-28 -50 -80 -136 -115 -190 l-64 -99 -120 -59 c-132
-65 -201 -110 -192 -124 19 -31 161 4 755 183 259 78 278 82 327 67 76 -23
487 -235 524 -270 47 -45 64 -103 50 -169 -13 -61 -45 -147 -71 -188 l-20 -33
-67 41 c-38 22 -72 46 -78 53 -13 15 -286 126 -329 133 -47 7 -439 -77 -617
-133 -90 -28 -113 -48 -84 -71 28 -21 180 -12 410 23 99 16 217 28 262 29 80
0 83 -1 205 -62 169 -86 283 -157 314 -198 37 -49 35 -108 -5 -210 -18 -44
-40 -91 -50 -104 l-18 -24 -31 22 c-54 38 -254 130 -322 147 -58 15 -83 15
-225 5 -276 -21 -335 -33 -335 -67 0 -26 87 -38 368 -54 l172 -9 103 -46 c148
-67 249 -127 275 -165 44 -65 17 -191 -61 -285 l-24 -29 -24 26 c-19 21 -52
34 -168 63 -156 39 -173 40 -386 14 -144 -17 -122 4 -238 -222 -119 -232 -186
-347 -251 -434 -71 -94 -221 -248 -310 -318 l-81 -63 -33 -158 c-18 -88 -53
-256 -78 -374 -135 -645 -199 -1049 -170 -1077 4 -4 14 1 22 12 38 52 163 527
288 1095 42 190 81 366 87 391 9 39 18 51 69 88 33 24 100 85 149 136 l89 92
6 -61 c3 -34 9 -127 12 -207 7 -144 7 -147 -15 -154 -57 -18 -97 -126 -72
-196 10 -30 9 -34 -28 -69 -47 -42 -61 -74 -61 -137 0 -68 37 -125 100 -155
45 -21 49 -26 50 -58 1 -29 7 -40 40 -62 52 -36 69 -64 80 -133 12 -74 57
-170 101 -216 l34 -36 -31 -40 c-62 -81 -53 -178 24 -253 26 -25 60 -64 76
-87 85 -127 300 -123 363 6 12 23 36 52 54 64 56 38 80 91 77 168 -3 52 -9 75
-30 106 l-27 41 22 20 c45 43 87 127 106 215 19 92 39 125 93 153 20 11 29 25
34 52 5 32 13 41 54 64 109 61 121 225 21 299 -25 18 -28 25 -20 46 26 69 -2
162 -58 195 -41 25 -41 -6 -8 518 34 544 28 502 72 525 80 44 173 187 194 300
13 70 7 119 -22 179 l-22 43 36 64 c97 174 112 329 42 424 l-22 30 34 60 c80
143 106 318 62 415 -22 49 -68 101 -114 130 l-30 19 8 118 c11 160 11 160 57
183 112 57 141 210 55 292 -19 18 -35 38 -35 46 0 38 59 132 120 193 86 85
166 125 372 183 253 73 357 125 413 207 37 52 45 131 21 194 -19 48 -94 124
-146 147 l-30 13 0 260 c0 295 -3 309 -75 356 -112 73 -412 161 -725 214 -52
8 -108 18 -123 21 l-28 6 37 40 c66 73 80 146 45 225 -17 37 -54 71 -117 109
-17 10 -8 22 86 115 212 209 300 402 300 655 0 200 -65 373 -204 540 -147 176
-306 285 -636 437 -118 54 -258 121 -310 148 -205 107 -355 248 -431 405 -57
117 -72 200 -66 362 2 72 3 132 2 132 -2 0 -32 -25 -67 -55z m-64 -392 c11
-59 89 -211 149 -288 71 -92 193 -197 319 -273 57 -34 209 -111 338 -172 129
-61 271 -131 315 -156 285 -164 460 -389 494 -636 20 -142 -21 -310 -111 -462
-54 -94 -87 -135 -180 -232 l-78 -80 -87 18 c-255 52 -618 52 -875 -1 l-83
-17 -42 86 c-24 47 -79 130 -123 185 -130 162 -170 257 -170 401 l0 82 53 -51
c57 -56 147 -110 173 -105 11 2 2 20 -37 68 -74 92 -101 157 -107 256 -6 118
0 123 76 64 35 -27 136 -96 225 -152 178 -113 283 -204 335 -291 50 -83 82
-185 90 -289 4 -56 12 -93 19 -95 36 -12 50 223 19 337 -45 166 -171 318 -381
459 -319 215 -445 357 -527 592 -31 88 -33 102 -32 229 0 121 3 144 28 220 16
47 40 108 54 135 34 68 122 205 132 205 4 0 11 -17 14 -37z m1096 -2408 c140
-25 249 -64 274 -97 24 -34 15 -71 -26 -101 l-27 -20 -73 21 c-166 48 -248 57
-518 57 -224 -1 -270 -4 -380 -24 -69 -13 -147 -32 -174 -42 -44 -16 -52 -17
-77 -3 -55 28 -66 89 -23 123 42 33 228 82 384 100 123 15 530 6 640 -14z
m-71 -290 c53 -8 114 -18 136 -23 l40 -8 0 -284 0 -285 -100 5 c-152 8 -710 6
-797 -2 l-78 -8 0 280 0 280 23 9 c30 11 194 40 292 51 104 11 361 4 484 -15z
m-939 -380 l0 -234 -32 -5 c-18 -3 -74 -10 -123 -16 -50 -6 -143 -21 -208 -34
l-117 -23 0 233 c0 195 2 233 15 237 16 7 359 64 415 70 19 2 38 5 43 5 4 1 7
-104 7 -233z m1460 204 c74 -11 151 -24 170 -29 19 -4 47 -11 63 -14 l27 -6 0
-231 0 -231 -32 4 c-18 3 -109 17 -203 32 -93 15 -185 30 -202 32 l-33 5 0
228 c0 125 3 231 7 234 4 4 20 5 37 2 17 -3 92 -14 166 -26z m-2052 -310 l-3
-232 -127 -33 c-70 -19 -150 -42 -177 -53 l-51 -19 0 224 0 223 32 17 c40 21
287 103 311 104 16 0 17 -16 15 -231z m2546 196 c60 -20 131 -45 157 -57 l49
-20 0 -224 c0 -123 -1 -224 -3 -224 -2 0 -37 12 -78 26 -41 14 -114 36 -164
49 l-90 23 -3 231 c-2 181 0 231 10 231 7 0 62 -16 122 -35z m-1069 -435 c358
-18 636 -57 926 -130 405 -102 587 -208 524 -304 -27 -41 -47 -40 -137 8 -214
114 -572 205 -994 253 -229 26 -943 26 -1154 0 -529 -64 -918 -167 -1090 -287
-28 -20 -54 -14 -84 18 -84 94 115 209 539 312 455 111 956 155 1470 130z
m229 -306 c248 -23 524 -73 724 -131 95 -27 262 -94 262 -105 0 -4 -26 -14
-57 -22 -260 -72 -363 -121 -474 -223 -60 -56 -125 -154 -150 -226 -12 -34
-16 -37 -39 -31 -59 15 -207 44 -227 44 -28 0 -28 1 2 45 72 107 86 252 32
334 -18 27 -44 50 -70 62 -74 33 -96 29 -322 -65 -124 -51 -210 -77 -470 -142
-249 -63 -281 -80 -378 -204 -28 -36 -53 -68 -57 -73 -3 -4 -20 -11 -38 -16
l-31 -9 -45 93 c-100 205 -261 319 -563 400 -57 16 -103 31 -103 34 0 8 118
55 215 85 252 79 636 142 1005 166 177 11 581 3 784 -16z m137 -840 c170 -36
217 -51 235 -79 19 -30 13 -66 -17 -94 -19 -18 -24 -18 -59 -6 -86 30 -328 74
-498 90 l-72 7 87 59 88 59 60 -6 c33 -3 112 -16 176 -30z m-231 -225 c41 -5
131 -21 199 -36 l123 -27 -7 -105 c-4 -58 -9 -109 -11 -112 -2 -4 -70 27 -151
68 -153 76 -252 113 -307 113 -41 0 -182 -38 -370 -100 -82 -27 -151 -48 -153
-46 -1 1 26 52 62 112 72 122 87 133 190 145 72 9 321 2 425 -12z m-167 -2436
c3 -492 7 -573 27 -573 18 0 29 147 55 740 9 189 18 346 20 348 2 2 41 -5 87
-16 l83 -19 -2 -79 c-1 -66 -20 -407 -49 -891 l-6 -103 -344 0 -343 0 -6 33
c-3 17 -8 146 -13 286 l-7 253 37 58 c20 32 59 101 88 154 28 53 53 96 54 96
1 0 3 -80 4 -177 2 -195 21 -575 31 -637 7 -45 25 -58 35 -24 3 13 9 249 13
526 4 338 10 507 17 517 7 10 43 18 106 23 52 5 98 10 102 11 4 0 8 -236 11
-526z m265 -719 c45 -7 68 -43 50 -79 l-14 -25 -419 -1 c-231 0 -425 1 -431 1
-20 0 -37 55 -24 79 6 12 12 22 13 23 16 13 742 15 825 2z m15 -232 c77 -6 92
-10 108 -31 25 -31 24 -47 -6 -76 l-24 -25 -483 0 c-539 0 -528 -1 -528 64 0
49 21 60 124 67 130 8 705 9 809 1z m-59 -260 c2 -4 -7 -18 -20 -31 -37 -36
-53 -73 -68 -160 -14 -81 -39 -129 -101 -193 -26 -28 -27 -28 -159 -28 l-134
0 -51 56 c-51 56 -81 124 -81 186 0 40 -22 88 -59 130 -32 36 -32 37 -9 41 41
8 677 7 682 -1z m-189 -554 c37 -33 43 -85 15 -121 -13 -16 -33 -32 -46 -37
-13 -5 -30 -25 -38 -45 -34 -80 -142 -79 -181 2 -11 23 -25 42 -31 43 -7 0
-26 14 -44 30 -29 27 -32 35 -27 68 4 22 17 46 32 60 24 20 35 22 160 22 125
0 136 -2 160 -22z"/>
</g>
</svg>
