<?xml version="1.0" standalone="no"?>
<!DOCTYPE svg PUBLIC "-//W3C//DTD SVG 20010904//EN"
 "http://www.w3.org/TR/2001/REC-SVG-20010904/DTD/svg10.dtd">
<svg version="1.0" xmlns="http://www.w3.org/2000/svg"
 width="419" height="421" viewBox="0 0 419 421" role="img" aria-label="Civic Guild logo"
 preserveAspectRatio="xMidYMid meet">
<metadata>
Created by potrace 1.16, written by Peter Selinger 2001-2019
</metadata>
<g transform="translate(-40.191064,466.812803) scale(0.100000,-0.100000)"
fill="#1e4ea8" stroke="none">
<path d="M2322 4659 c-394 -33 -821 -205 -1135 -458 -433 -350 -706 -851 -772
-1419 -79 -676 209 -1394 735 -1834 292 -245 632 -404 1000 -469 169 -30 429
-36 600 -14 644 81 1205 445 1543 1001 137 225 229 474 278 751 19 106 23 165
23 343 0 239 -17 374 -76 577 -242 846 -983 1452 -1862 1523 -143 11 -184 11
-334 -1z m58 -281 c1 -150 57 -212 297 -329 133 -65 175 -91 228 -141 90 -83
128 -162 128 -262 0 -60 -5 -84 -30 -137 -17 -35 -52 -86 -78 -112 l-48 -48
27 -28 c30 -31 34 -75 11 -108 -15 -21 -14 -21 58 -33 86 -14 243 -63 275 -85
20 -15 22 -23 22 -124 l0 -109 40 -40 c81 -81 43 -142 -123 -193 -119 -37
-171 -69 -196 -118 -18 -34 -18 -36 2 -62 24 -33 18 -70 -17 -102 -16 -15 -26
-39 -31 -74 -6 -45 -4 -53 13 -62 23 -12 52 -70 52 -103 0 -12 -11 -48 -23
-78 -20 -49 -22 -59 -10 -85 15 -36 9 -84 -18 -138 -17 -32 -18 -44 -9 -72 16
-48 -2 -106 -49 -155 l-39 -41 -12 -188 -13 -188 23 -31 c15 -20 21 -39 18
-56 -3 -17 1 -31 13 -42 29 -26 24 -71 -11 -104 -16 -15 -30 -31 -30 -34 0 -3
-11 -16 -25 -30 -14 -14 -25 -36 -25 -49 0 -13 -11 -40 -24 -59 -21 -32 -22
-37 -9 -62 20 -38 11 -62 -41 -118 -37 -41 -50 -48 -81 -48 -32 0 -44 7 -81
47 -51 56 -61 86 -39 119 14 22 13 26 -10 60 -14 20 -25 48 -25 61 0 13 -11
35 -25 49 -14 14 -25 31 -25 39 0 8 -6 15 -14 15 -21 0 -46 39 -46 71 0 14 9
34 20 44 14 12 18 25 14 42 -5 17 0 34 15 53 17 24 21 43 21 106 l0 77 -58
-54 c-50 -46 -60 -62 -71 -109 -7 -30 -31 -134 -53 -230 -46 -201 -85 -330
-98 -330 -21 0 -3 121 67 460 l36 175 59 53 c71 66 131 148 193 267 26 50 52
93 59 96 6 4 39 9 73 13 65 7 181 -15 195 -37 3 -6 15 4 27 24 39 64 28 90
-58 133 -57 29 -82 35 -179 43 -108 9 -133 16 -119 29 11 12 91 23 162 24 60
0 81 -5 142 -34 l72 -35 15 47 c9 25 16 51 16 58 0 21 -37 50 -113 90 -67 35
-72 36 -141 30 -193 -18 -239 -19 -234 -5 8 26 240 85 293 75 17 -4 65 -24
107 -45 l77 -39 15 39 c34 84 20 104 -127 175 l-97 47 -53 -15 c-28 -9 -106
-32 -172 -51 -66 -20 -137 -39 -159 -43 -57 -10 -43 12 32 54 53 29 68 44 103
103 41 68 43 70 143 118 73 35 114 62 144 95 43 46 55 91 29 102 -8 3 -47 -9
-89 -25 -41 -17 -122 -43 -179 -58 l-104 -28 -80 -106 c-44 -57 -104 -133
-132 -167 -29 -35 -53 -65 -53 -67 0 -3 -13 -53 -29 -112 -16 -60 -57 -222
-90 -360 -63 -265 -77 -304 -218 -613 -72 -158 -168 -343 -198 -384 -8 -11
-18 -16 -22 -13 -7 8 12 54 196 483 119 277 122 285 181 535 57 240 82 337
116 455 11 37 33 72 78 124 54 61 64 79 69 118 11 102 -50 165 -203 207 -83
22 -133 48 -159 81 -32 41 -27 72 19 115 l40 38 0 101 c0 93 2 103 24 125 28
28 149 68 275 91 89 16 90 17 76 37 -24 35 -18 75 15 108 35 35 34 40 -35 120
-79 93 -93 194 -44 321 l20 54 -36 59 c-47 78 -58 124 -53 216 6 103 52 201
138 292 34 37 66 67 71 67 5 0 9 -33 9 -72z"/>
<path d="M2296 4258 c-64 -99 -80 -221 -39 -310 29 -63 99 -137 193 -203 43
-29 91 -71 108 -91 50 -61 73 -147 56 -211 -10 -37 -19 -27 -31 39 -17 88 -52
132 -168 210 -55 37 -103 68 -107 68 -24 1 8 -99 44 -137 42 -45 -9 -36 -59
10 l-23 20 0 -29 c1 -46 23 -94 72 -162 26 -34 50 -71 53 -81 5 -17 11 -18 48
-9 55 13 280 13 335 0 l42 -10 44 49 c64 71 90 130 94 214 5 89 -19 146 -93
220 -41 40 -86 68 -217 133 -192 94 -259 148 -307 243 -30 59 -30 60 -45 37z"/>
<path d="M2431 3304 c-36 -7 -72 -20 -80 -29 -14 -13 -14 -17 0 -30 12 -12 22
-13 41 -6 13 5 69 15 123 21 103 12 201 7 285 -15 41 -11 51 -11 61 1 21 25 1
42 -70 58 -86 20 -271 20 -360 0z"/>
<path d="M2455 3191 l-30 -6 -3 -110 -3 -110 191 0 190 0 0 111 0 111 -46 7
c-58 8 -258 6 -299 -3z"/>
<path d="M2330 3133 c-8 -1 -48 -7 -87 -13 l-73 -12 0 -90 c0 -89 0 -90 23
-84 13 3 48 8 79 12 31 4 61 10 67 14 8 4 11 35 9 91 -2 68 -6 84 -18 82z"/>
<path d="M2860 3051 c0 -50 1 -91 3 -91 1 -1 38 -7 82 -15 44 -8 83 -15 88
-15 4 0 7 40 7 89 l0 89 -72 12 c-40 6 -81 14 -90 16 -16 5 -18 -4 -18 -85z"/>
<path d="M2035 3071 l-50 -18 -3 -86 c-1 -48 -1 -87 0 -87 2 1 32 9 68 19 l65
18 3 86 c3 99 4 99 -83 68z"/>
<path d="M3090 3002 l0 -89 48 -11 c26 -6 55 -14 65 -17 15 -6 17 1 17 78 l0
86 -55 20 c-31 12 -60 21 -65 21 -6 0 -10 -38 -10 -88z"/>
<path d="M2435 2904 c-16 -2 -73 -9 -125 -15 -164 -19 -353 -74 -393 -114 -42
-42 -4 -55 65 -22 131 62 359 99 613 100 269 0 490 -34 614 -98 55 -27 81 -27
81 0 0 37 -149 93 -340 126 -110 20 -437 34 -515 23z"/>
<path d="M2400 2785 c-8 -2 -55 -9 -105 -16 -91 -12 -237 -48 -270 -66 -14 -8
-9 -12 30 -22 99 -25 179 -82 210 -151 10 -22 22 -40 26 -40 5 0 30 22 56 49
46 46 54 49 158 75 61 15 141 41 180 57 88 37 107 36 139 -2 30 -36 32 -54 10
-109 -9 -23 -15 -42 -13 -44 2 -2 25 -6 50 -10 44 -6 47 -5 58 21 28 66 96
118 193 147 l71 22 -44 16 c-144 54 -317 78 -549 77 -102 -1 -192 -3 -200 -4z"/>
<path d="M2730 2443 l-34 -23 31 0 c17 0 67 -7 110 -16 106 -21 107 -21 111
-2 4 22 -20 34 -109 51 -74 14 -76 13 -109 -10z"/>
<path d="M2565 2361 c-11 -5 -30 -26 -42 -48 l-23 -40 96 28 c53 16 104 29
113 29 9 0 50 -16 90 -35 41 -20 76 -34 78 -32 2 3 6 20 9 39 l6 35 -59 12
c-81 15 -243 23 -268 12z"/>
<path d="M2638 1593 l-28 -4 0 -132 c0 -73 -3 -169 -7 -214 l-6 -83 53 0 c49
0 52 1 46 23 -3 12 -6 111 -6 220 0 152 -3 197 -12 196 -7 -1 -25 -4 -40 -6z"/>
<path d="M2736 1491 c-4 -58 -10 -157 -14 -218 l-7 -113 31 0 32 0 7 103 c4
56 8 151 8 211 l2 109 -27 8 -26 7 -6 -107z"/>
<path d="M2531 1434 l-33 -55 7 -109 8 -110 32 0 33 0 -5 163 c-3 89 -6 163
-7 164 -1 1 -17 -23 -35 -53z"/>
<path d="M2503 1103 c-20 -3 -33 -10 -33 -19 0 -12 30 -14 175 -14 141 0 175
3 175 14 0 8 -17 16 -46 20 -49 6 -215 6 -271 -1z"/>
<path d="M2447 1004 c-4 -4 -7 -13 -7 -21 0 -10 41 -13 206 -13 190 0 205 1
202 18 -3 15 -22 17 -199 20 -107 1 -198 -1 -202 -4z"/>
<path d="M2519 896 c6 -7 18 -34 25 -61 21 -70 39 -85 101 -85 60 0 91 24 101
80 4 19 13 45 20 58 l14 22 -136 0 c-114 0 -135 -2 -125 -14z"/>
<path d="M2574 676 c-8 -20 46 -86 69 -86 25 0 79 56 75 77 -4 25 -135 32
-144 9z"/>
</g>
</svg>
